<?xml version="1.0" standalone="no"?>
<!DOCTYPE svg PUBLIC "-//W3C//DTD SVG 20010904//EN"
 "http://www.w3.org/TR/2001/REC-SVG-20010904/DTD/svg10.dtd">
<svg version="1.0" xmlns="http://www.w3.org/2000/svg"
 width="32.000000pt" height="71.000000pt" viewBox="0 0 50.000000 71.000000"
 preserveAspectRatio="xMidYMid meet">

<g transform="translate(0.000000,71.000000) scale(0.100000,-0.100000)"
fill="#000000" stroke="none">
<path d="M260 415 l0 -145 -44 0 c-56 0 -96 -29 -96 -70 0 -52 63 -66 121 -27
l34 23 5 134 c4 109 8 135 20 135 21 0 60 -63 60 -97 0 -17 4 -27 10 -23 6 3
10 23 10 44 0 30 -8 48 -38 82 -22 24 -44 54 -51 67 -25 46 -31 21 -31 -123z"/>
</g>
</svg>
